{
    "asset" : {
        "generator" : "Khronos glTF Blender I/O v1.7.33",
        "version" : "2.0"
    },
    "scene" : 0,
    "scenes" : [
        {
            "name" : "Scene",
            "nodes" : [
                0
            ]
        }
    ],
    "nodes" : [
        {
            "mesh" : 0,
            "name" : "coffee_maker",
            "translation" : [
                0.6151930093765259,
                4.483058452606201,
                -1.6450694799423218
            ]
        }
    ],
    "materials" : [
        {
            "doubleSided" : true,
            "name" : "cup",
            "pbrMetallicRoughness" : {
                "baseColorTexture" : {
                    "index" : 0
                },
                "metallicFactor" : 0,
                "roughnessFactor" : 0.5
            }
        },
        {
            "doubleSided" : true,
            "name" : "cup_handle",
            "pbrMetallicRoughness" : {
                "baseColorTexture" : {
                    "index" : 1
                },
                "metallicFactor" : 0,
                "roughnessFactor" : 0.5
            }
        },
        {
            "doubleSided" : true,
            "name" : "maker_secondary",
            "pbrMetallicRoughness" : {
                "baseColorTexture" : {
                    "index" : 2
                },
                "metallicFactor" : 0,
                "roughnessFactor" : 0.5
            }
        },
        {
            "doubleSided" : true,
            "name" : "maker_base",
            "pbrMetallicRoughness" : {
                "baseColorTexture" : {
                    "index" : 3
                },
                "metallicFactor" : 0,
                "roughnessFactor" : 0.5
            }
        },
        {
            "doubleSided" : true,
            "name" : "controls",
            "pbrMetallicRoughness" : {
                "baseColorTexture" : {
                    "index" : 4
                },
                "metallicFactor" : 0,
                "roughnessFactor" : 0.5
            }
        },
        {
            "doubleSided" : true,
            "name" : "cup_base",
            "pbrMetallicRoughness" : {
                "baseColorTexture" : {
                    "index" : 5
                },
                "metallicFactor" : 0,
                "roughnessFactor" : 0.5
            }
        },
        {
            "doubleSided" : true,
            "name" : "display",
            "pbrMetallicRoughness" : {
                "baseColorTexture" : {
                    "index" : 6
                },
                "metallicFactor" : 0,
                "roughnessFactor" : 0.5
            }
        }
    ],
    "meshes" : [
        {
            "name" : "Cube.010",
            "primitives" : [
                {
                    "attributes" : {
                        "POSITION" : 0,
                        "NORMAL" : 1,
                        "TEXCOORD_0" : 2
                    },
                    "indices" : 3,
                    "material" : 0
                },
                {
                    "attributes" : {
                        "POSITION" : 4,
                        "NORMAL" : 5,
                        "TEXCOORD_0" : 6
                    },
                    "indices" : 7,
                    "material" : 1
                },
                {
                    "attributes" : {
                        "POSITION" : 8,
                        "NORMAL" : 9,
                        "TEXCOORD_0" : 10
                    },
                    "indices" : 11,
                    "material" : 2
                },
                {
                    "attributes" : {
                        "POSITION" : 12,
                        "NORMAL" : 13,
                        "TEXCOORD_0" : 14
                    },
                    "indices" : 15,
                    "material" : 3
                },
                {
                    "attributes" : {
                        "POSITION" : 16,
                        "NORMAL" : 17,
                        "TEXCOORD_0" : 18
                    },
                    "indices" : 19,
                    "material" : 4
                },
                {
                    "attributes" : {
                        "POSITION" : 20,
                        "NORMAL" : 21,
                        "TEXCOORD_0" : 22
                    },
                    "indices" : 23,
                    "material" : 5
                },
                {
                    "attributes" : {
                        "POSITION" : 24,
                        "NORMAL" : 25,
                        "TEXCOORD_0" : 26
                    },
                    "indices" : 27,
                    "material" : 6
                }
            ]
        }
    ],
    "textures" : [
        {
            "sampler" : 0,
            "source" : 0
        },
        {
            "sampler" : 0,
            "source" : 1
        },
        {
            "sampler" : 0,
            "source" : 2
        },
        {
            "sampler" : 0,
            "source" : 3
        },
        {
            "sampler" : 0,
            "source" : 4
        },
        {
            "sampler" : 0,
            "source" : 5
        },
        {
            "sampler" : 0,
            "source" : 6
        }
    ],
    "images" : [
        {
            "bufferView" : 4,
            "mimeType" : "image/png",
            "name" : "cup_baseColor"
        },
        {
            "bufferView" : 9,
            "mimeType" : "image/png",
            "name" : "cup_handle_baseColor"
        },
        {
            "bufferView" : 14,
            "mimeType" : "image/png",
            "name" : "maker_secondary_baseColor"
        },
        {
            "bufferView" : 19,
            "mimeType" : "image/png",
            "name" : "maker_base_baseColor"
        },
        {
            "bufferView" : 24,
            "mimeType" : "image/png",
            "name" : "controls_baseColor"
        },
        {
            "bufferView" : 29,
            "mimeType" : "image/png",
            "name" : "cup_base_baseColor"
        },
        {
            "bufferView" : 34,
            "mimeType" : "image/png",
            "name" : "display_baseColor"
        }
    ],
    "accessors" : [
        {
            "bufferView" : 0,
            "componentType" : 5126,
            "count" : 327,
            "max" : [
                5.032057285308838,
                -0.9281258583068848,
                8.973118782043457
            ],
            "min" : [
                4.634078502655029,
                -1.3364062309265137,
                8.562965393066406
            ],
            "type" : "VEC3"
        },
        {
            "bufferView" : 1,
            "componentType" : 5126,
            "count" : 327,
            "type" : "VEC3"
        },
        {
            "bufferView" : 2,
            "componentType" : 5126,
            "count" : 327,
            "type" : "VEC2"
        },
        {
            "bufferView" : 3,
            "componentType" : 5123,
            "count" : 1056,
            "type" : "SCALAR"
        },
        {
            "bufferView" : 5,
            "componentType" : 5126,
            "count" : 106,
            "max" : [
                5.008130073547363,
                -0.9511640071868896,
                9.04747200012207
            ],
            "min" : [
                4.658005237579346,
                -1.2656538486480713,
                8.581985473632812
            ],
            "type" : "VEC3"
        },
        {
            "bufferView" : 6,
            "componentType" : 5126,
            "count" : 106,
            "type" : "VEC3"
        },
        {
            "bufferView" : 7,
            "componentType" : 5126,
            "count" : 106,
            "type" : "VEC2"
        },
        {
            "bufferView" : 8,
            "componentType" : 5123,
            "count" : 252,
            "type" : "SCALAR"
        },
        {
            "bufferView" : 10,
            "componentType" : 5126,
            "count" : 112,
            "max" : [
                5.2952656745910645,
                -0.47115087509155273,
                9.0591459274292
            ],
            "min" : [
                4.57384729385376,
                -0.8335752487182617,
                8.48917293548584
            ],
            "type" : "VEC3"
        },
        {
            "bufferView" : 11,
            "componentType" : 5126,
            "count" : 112,
            "type" : "VEC3"
        },
        {
            "bufferView" : 12,
            "componentType" : 5126,
            "count" : 112,
            "type" : "VEC2"
        },
        {
            "bufferView" : 13,
            "componentType" : 5123,
            "count" : 180,
            "type" : "SCALAR"
        },
        {
            "bufferView" : 15,
            "componentType" : 5126,
            "count" : 176,
            "max" : [
                5.291015625,
                -0.6038894653320312,
                9.06588077545166
            ],
            "min" : [
                4.544318199157715,
                -1.4295945167541504,
                8.482439041137695
            ],
            "type" : "VEC3"
        },
        {
            "bufferView" : 16,
            "componentType" : 5126,
            "count" : 176,
            "type" : "VEC3"
        },
        {
            "bufferView" : 17,
            "componentType" : 5126,
            "count" : 176,
            "type" : "VEC2"
        },
        {
            "bufferView" : 18,
            "componentType" : 5123,
            "count" : 408,
            "type" : "SCALAR"
        },
        {
            "bufferView" : 20,
            "componentType" : 5126,
            "count" : 124,
            "max" : [
                4.620419979095459,
                -0.7805600166320801,
                9.007280349731445
            ],
            "min" : [
                4.575433254241943,
                -0.8178267478942871,
                8.559903144836426
            ],
            "type" : "VEC3"
        },
        {
            "bufferView" : 21,
            "componentType" : 5126,
            "count" : 124,
            "type" : "VEC3"
        },
        {
            "bufferView" : 22,
            "componentType" : 5126,
            "count" : 124,
            "type" : "VEC2"
        },
        {
            "bufferView" : 23,
            "componentType" : 5123,
            "count" : 192,
            "type" : "SCALAR"
        },
        {
            "bufferView" : 25,
            "componentType" : 5126,
            "count" : 208,
            "max" : [
                5.053995609283447,
                -0.7683286666870117,
                8.995088577270508
            ],
            "min" : [
                4.612138748168945,
                -1.3847367763519287,
                8.553231239318848
            ],
            "type" : "VEC3"
        },
        {
            "bufferView" : 26,
            "componentType" : 5126,
            "count" : 208,
            "type" : "VEC3"
        },
        {
            "bufferView" : 27,
            "componentType" : 5126,
            "count" : 208,
            "type" : "VEC2"
        },
        {
            "bufferView" : 28,
            "componentType" : 5123,
            "count" : 552,
            "type" : "SCALAR"
        },
        {
            "bufferView" : 30,
            "componentType" : 5126,
            "count" : 24,
            "max" : [
                4.597418785095215,
                -0.5991759300231934,
                9.016579627990723
            ],
            "min" : [
                4.571767807006836,
                -0.7602312564849854,
                8.531745910644531
            ],
            "type" : "VEC3"
        },
        {
            "bufferView" : 31,
            "componentType" : 5126,
            "count" : 24,
            "type" : "VEC3"
        },
        {
            "bufferView" : 32,
            "componentType" : 5126,
            "count" : 24,
            "type" : "VEC2"
        },
        {
            "bufferView" : 33,
            "componentType" : 5123,
            "count" : 36,
            "type" : "SCALAR"
        }
    ],
    "bufferViews" : [
        {
            "buffer" : 0,
            "byteLength" : 3924,
            "byteOffset" : 0
        },
        {
            "buffer" : 0,
            "byteLength" : 3924,
            "byteOffset" : 3924
        },
        {
            "buffer" : 0,
            "byteLength" : 2616,
            "byteOffset" : 7848
        },
        {
            "buffer" : 0,
            "byteLength" : 2112,
            "byteOffset" : 10464
        },
        {
            "buffer" : 0,
            "byteLength" : 489906,
            "byteOffset" : 12576
        },
        {
            "buffer" : 0,
            "byteLength" : 1272,
            "byteOffset" : 502484
        },
        {
            "buffer" : 0,
            "byteLength" : 1272,
            "byteOffset" : 503756
        },
        {
            "buffer" : 0,
            "byteLength" : 848,
            "byteOffset" : 505028
        },
        {
            "buffer" : 0,
            "byteLength" : 504,
            "byteOffset" : 505876
        },
        {
            "buffer" : 0,
            "byteLength" : 5357,
            "byteOffset" : 506380
        },
        {
            "buffer" : 0,
            "byteLength" : 1344,
            "byteOffset" : 511740
        },
        {
            "buffer" : 0,
            "byteLength" : 1344,
            "byteOffset" : 513084
        },
        {
            "buffer" : 0,
            "byteLength" : 896,
            "byteOffset" : 514428
        },
        {
            "buffer" : 0,
            "byteLength" : 360,
            "byteOffset" : 515324
        },
        {
            "buffer" : 0,
            "byteLength" : 391193,
            "byteOffset" : 515684
        },
        {
            "buffer" : 0,
            "byteLength" : 2112,
            "byteOffset" : 906880
        },
        {
            "buffer" : 0,
            "byteLength" : 2112,
            "byteOffset" : 908992
        },
        {
            "buffer" : 0,
            "byteLength" : 1408,
            "byteOffset" : 911104
        },
        {
            "buffer" : 0,
            "byteLength" : 816,
            "byteOffset" : 912512
        },
        {
            "buffer" : 0,
            "byteLength" : 378115,
            "byteOffset" : 913328
        },
        {
            "buffer" : 0,
            "byteLength" : 1488,
            "byteOffset" : 1291444
        },
        {
            "buffer" : 0,
            "byteLength" : 1488,
            "byteOffset" : 1292932
        },
        {
            "buffer" : 0,
            "byteLength" : 992,
            "byteOffset" : 1294420
        },
        {
            "buffer" : 0,
            "byteLength" : 384,
            "byteOffset" : 1295412
        },
        {
            "buffer" : 0,
            "byteLength" : 322260,
            "byteOffset" : 1295796
        },
        {
            "buffer" : 0,
            "byteLength" : 2496,
            "byteOffset" : 1618056
        },
        {
            "buffer" : 0,
            "byteLength" : 2496,
            "byteOffset" : 1620552
        },
        {
            "buffer" : 0,
            "byteLength" : 1664,
            "byteOffset" : 1623048
        },
        {
            "buffer" : 0,
            "byteLength" : 1104,
            "byteOffset" : 1624712
        },
        {
            "buffer" : 0,
            "byteLength" : 150658,
            "byteOffset" : 1625816
        },
        {
            "buffer" : 0,
            "byteLength" : 288,
            "byteOffset" : 1776476
        },
        {
            "buffer" : 0,
            "byteLength" : 288,
            "byteOffset" : 1776764
        },
        {
            "buffer" : 0,
            "byteLength" : 192,
            "byteOffset" : 1777052
        },
        {
            "buffer" : 0,
            "byteLength" : 72,
            "byteOffset" : 1777244
        },
        {
            "buffer" : 0,
            "byteLength" : 1182840,
            "byteOffset" : 1777316
        }
    ],
    "samplers" : [
        {
            "magFilter" : 9729,
            "minFilter" : 9987
        }
    ],
    "buffers" : [
        {
            "byteLength" : 2960156,
            "uri" : "data:application/octet-stream;base64,"
        }
    ]
}
