{
    "asset" : {
        "generator" : "Khronos glTF Blender I/O v1.7.33",
        "version" : "2.0"
    },
    "scene" : 0,
    "scenes" : [
        {
            "name" : "Scene",
            "nodes" : [
                0
            ]
        }
    ],
    "nodes" : [
        {
            "mesh" : 0,
            "name" : "frying_pan",
            "rotation" : [
                0,
                0.46835774183273315,
                0,
                0.8835389018058777
            ],
            "scale" : [
                1.1726746559143066,
                1.1726746559143066,
                1.1726746559143066
            ],
            "translation" : [
                0.6151928901672363,
                4.483058929443359,
                -1.6450698375701904
            ]
        }
    ],
    "materials" : [
        {
            "doubleSided" : true,
            "name" : "panhandle",
            "pbrMetallicRoughness" : {
                "baseColorTexture" : {
                    "index" : 0
                },
                "metallicFactor" : 0,
                "roughnessFactor" : 0.5
            }
        },
        {
            "doubleSided" : true,
            "name" : "panwood",
            "pbrMetallicRoughness" : {
                "baseColorTexture" : {
                    "index" : 1
                },
                "metallicFactor" : 0,
                "roughnessFactor" : 0.5
            }
        },
        {
            "doubleSided" : true,
            "name" : "pan",
            "pbrMetallicRoughness" : {
                "baseColorTexture" : {
                    "index" : 2
                },
                "metallicFactor" : 0,
                "roughnessFactor" : 0.5
            }
        }
    ],
    "meshes" : [
        {
            "name" : "Circle.003",
            "primitives" : [
                {
                    "attributes" : {
                        "POSITION" : 0,
                        "NORMAL" : 1,
                        "TEXCOORD_0" : 2
                    },
                    "indices" : 3,
                    "material" : 0
                },
                {
                    "attributes" : {
                        "POSITION" : 4,
                        "NORMAL" : 5,
                        "TEXCOORD_0" : 6
                    },
                    "indices" : 7,
                    "material" : 1
                },
                {
                    "attributes" : {
                        "POSITION" : 8,
                        "NORMAL" : 9,
                        "TEXCOORD_0" : 10
                    },
                    "indices" : 11,
                    "material" : 2
                }
            ]
        }
    ],
    "textures" : [
        {
            "sampler" : 0,
            "source" : 0
        },
        {
            "sampler" : 0,
            "source" : 1
        },
        {
            "sampler" : 0,
            "source" : 2
        }
    ],
    "images" : [
        {
            "bufferView" : 4,
            "mimeType" : "image/png",
            "name" : "panhandle_baseColor"
        },
        {
            "bufferView" : 9,
            "mimeType" : "image/png",
            "name" : "panwood_baseColor"
        },
        {
            "bufferView" : 14,
            "mimeType" : "image/png",
            "name" : "pan_baseColor"
        }
    ],
    "accessors" : [
        {
            "bufferView" : 0,
            "componentType" : 5126,
            "count" : 302,
            "max" : [
                -3.7341957092285156,
                -1.177610158920288,
                -1.4100806713104248
            ],
            "min" : [
                -4.477290153503418,
                -1.2686078548431396,
                -1.5552823543548584
            ],
            "type" : "VEC3"
        },
        {
            "bufferView" : 1,
            "componentType" : 5126,
            "count" : 302,
            "type" : "VEC3"
        },
        {
            "bufferView" : 2,
            "componentType" : 5126,
            "count" : 302,
            "type" : "VEC2"
        },
        {
            "bufferView" : 3,
            "componentType" : 5123,
            "count" : 912,
            "type" : "SCALAR"
        },
        {
            "bufferView" : 5,
            "componentType" : 5126,
            "count" : 383,
            "max" : [
                -3.806759834289551,
                -1.168616533279419,
                -1.4324920177459717
            ],
            "min" : [
                -4.276618957519531,
                -1.2827997207641602,
                -1.546675443649292
            ],
            "type" : "VEC3"
        },
        {
            "bufferView" : 6,
            "componentType" : 5126,
            "count" : 383,
            "type" : "VEC3"
        },
        {
            "bufferView" : 7,
            "componentType" : 5126,
            "count" : 383,
            "type" : "VEC2"
        },
        {
            "bufferView" : 8,
            "componentType" : 5123,
            "count" : 1428,
            "type" : "SCALAR"
        },
        {
            "bufferView" : 10,
            "componentType" : 5126,
            "count" : 130,
            "max" : [
                -4.440154552459717,
                -1.1889443397521973,
                -1.0477049350738525
            ],
            "min" : [
                -5.323914527893066,
                -1.3049371242523193,
                -1.9314649105072021
            ],
            "type" : "VEC3"
        },
        {
            "bufferView" : 11,
            "componentType" : 5126,
            "count" : 130,
            "type" : "VEC3"
        },
        {
            "bufferView" : 12,
            "componentType" : 5126,
            "count" : 130,
            "type" : "VEC2"
        },
        {
            "bufferView" : 13,
            "componentType" : 5123,
            "count" : 576,
            "type" : "SCALAR"
        }
    ],
    "bufferViews" : [
        {
            "buffer" : 0,
            "byteLength" : 3624,
            "byteOffset" : 0
        },
        {
            "buffer" : 0,
            "byteLength" : 3624,
            "byteOffset" : 3624
        },
        {
            "buffer" : 0,
            "byteLength" : 2416,
            "byteOffset" : 7248
        },
        {
            "buffer" : 0,
            "byteLength" : 1824,
            "byteOffset" : 9664
        },
        {
            "buffer" : 0,
            "byteLength" : 704039,
            "byteOffset" : 11488
        },
        {
            "buffer" : 0,
            "byteLength" : 4596,
            "byteOffset" : 715528
        },
        {
            "buffer" : 0,
            "byteLength" : 4596,
            "byteOffset" : 720124
        },
        {
            "buffer" : 0,
            "byteLength" : 3064,
            "byteOffset" : 724720
        },
        {
            "buffer" : 0,
            "byteLength" : 2856,
            "byteOffset" : 727784
        },
        {
            "buffer" : 0,
            "byteLength" : 929294,
            "byteOffset" : 730640
        },
        {
            "buffer" : 0,
            "byteLength" : 1560,
            "byteOffset" : 1659936
        },
        {
            "buffer" : 0,
            "byteLength" : 1560,
            "byteOffset" : 1661496
        },
        {
            "buffer" : 0,
            "byteLength" : 1040,
            "byteOffset" : 1663056
        },
        {
            "buffer" : 0,
            "byteLength" : 1152,
            "byteOffset" : 1664096
        },
        {
            "buffer" : 0,
            "byteLength" : 829830,
            "byteOffset" : 1665248
        }
    ],
    "samplers" : [
        {
            "magFilter" : 9729,
            "minFilter" : 9987
        }
    ],
    "buffers" : [
        {
            "byteLength" : 2495080,
            "uri" : "data:application/octet-stream;base64,"
        }
    ]
}
