{
    "asset" : {
        "generator" : "Khronos glTF Blender I/O v1.7.33",
        "version" : "2.0"
    },
    "scene" : 0,
    "scenes" : [
        {
            "name" : "Scene",
            "nodes" : [
                0
            ]
        }
    ],
    "nodes" : [
        {
            "mesh" : 0,
            "name" : "beer.008",
            "translation" : [
                0.6151928901672363,
                4.483058452606201,
                -1.6450695991516113
            ]
        }
    ],
    "materials" : [
        {
            "doubleSided" : true,
            "name" : "label",
            "pbrMetallicRoughness" : {
                "baseColorTexture" : {
                    "index" : 0
                },
                "metallicFactor" : 0,
                "roughnessFactor" : 0.5
            }
        }
    ],
    "meshes" : [
        {
            "name" : "Circle.013",
            "primitives" : [
                {
                    "attributes" : {
                        "POSITION" : 0,
                        "NORMAL" : 1,
                        "TEXCOORD_0" : 2
                    },
                    "indices" : 3,
                    "material" : 0
                }
            ]
        }
    ],
    "textures" : [
        {
            "sampler" : 0,
            "source" : 0
        }
    ],
    "images" : [
        {
            "bufferView" : 4,
            "mimeType" : "image/png",
            "name" : "label_baseColor"
        }
    ],
    "accessors" : [
        {
            "bufferView" : 0,
            "componentType" : 5126,
            "count" : 1860,
            "max" : [
                5.24089241027832,
                -3.5146195888519287,
                -1.7112326622009277
            ],
            "min" : [
                3.8054914474487305,
                -4.233545303344727,
                -6.712164402008057
            ],
            "type" : "VEC3"
        },
        {
            "bufferView" : 1,
            "componentType" : 5126,
            "count" : 1860,
            "type" : "VEC3"
        },
        {
            "bufferView" : 2,
            "componentType" : 5126,
            "count" : 1860,
            "type" : "VEC2"
        },
        {
            "bufferView" : 3,
            "componentType" : 5123,
            "count" : 6720,
            "type" : "SCALAR"
        }
    ],
    "bufferViews" : [
        {
            "buffer" : 0,
            "byteLength" : 22320,
            "byteOffset" : 0
        },
        {
            "buffer" : 0,
            "byteLength" : 22320,
            "byteOffset" : 22320
        },
        {
            "buffer" : 0,
            "byteLength" : 14880,
            "byteOffset" : 44640
        },
        {
            "buffer" : 0,
            "byteLength" : 13440,
            "byteOffset" : 59520
        },
        {
            "buffer" : 0,
            "byteLength" : 538820,
            "byteOffset" : 72960
        }
    ],
    "samplers" : [
        {
            "magFilter" : 9729,
            "minFilter" : 9987
        }
    ],
    "buffers" : [
        {
            "byteLength" : 611780,
            "uri" : "data:application/octet-stream;base64,"
        }
    ]
}
