{
    "asset" : {
        "generator" : "Khronos glTF Blender I/O v1.7.33",
        "version" : "2.0"
    },
    "scene" : 0,
    "scenes" : [
        {
            "name" : "Scene",
            "nodes" : [
                0
            ]
        }
    ],
    "nodes" : [
        {
            "mesh" : 0,
            "name" : "Cube.001",
            "rotation" : [
                0,
                0.7071068286895752,
                0,
                0.7071068286895752
            ],
            "translation" : [
                0.6151928901672363,
                4.483058452606201,
                -1.6450695991516113
            ]
        }
    ],
    "materials" : [
        {
            "doubleSided" : true,
            "name" : "legs",
            "pbrMetallicRoughness" : {
                "baseColorTexture" : {
                    "index" : 0
                },
                "metallicFactor" : 0,
                "roughnessFactor" : 0.5
            }
        },
        {
            "doubleSided" : true,
            "name" : "cushion",
            "pbrMetallicRoughness" : {
                "baseColorTexture" : {
                    "index" : 1
                },
                "metallicFactor" : 0,
                "roughnessFactor" : 0.5
            }
        },
        {
            "doubleSided" : true,
            "name" : "supports",
            "pbrMetallicRoughness" : {
                "baseColorTexture" : {
                    "index" : 2
                },
                "metallicFactor" : 0,
                "roughnessFactor" : 0.5
            }
        },
        {
            "doubleSided" : true,
            "name" : "back",
            "pbrMetallicRoughness" : {
                "baseColorTexture" : {
                    "index" : 3
                },
                "metallicFactor" : 0,
                "roughnessFactor" : 0.5
            }
        }
    ],
    "meshes" : [
        {
            "name" : "Cube.004",
            "primitives" : [
                {
                    "attributes" : {
                        "POSITION" : 0,
                        "NORMAL" : 1,
                        "TEXCOORD_0" : 2
                    },
                    "indices" : 3,
                    "material" : 0
                },
                {
                    "attributes" : {
                        "POSITION" : 4,
                        "NORMAL" : 5,
                        "TEXCOORD_0" : 6
                    },
                    "indices" : 7,
                    "material" : 1
                },
                {
                    "attributes" : {
                        "POSITION" : 8,
                        "NORMAL" : 9,
                        "TEXCOORD_0" : 10
                    },
                    "indices" : 11,
                    "material" : 2
                },
                {
                    "attributes" : {
                        "POSITION" : 12,
                        "NORMAL" : 13,
                        "TEXCOORD_0" : 14
                    },
                    "indices" : 15,
                    "material" : 3
                }
            ]
        }
    ],
    "textures" : [
        {
            "sampler" : 0,
            "source" : 0
        },
        {
            "sampler" : 0,
            "source" : 1
        },
        {
            "sampler" : 0,
            "source" : 2
        },
        {
            "sampler" : 0,
            "source" : 3
        }
    ],
    "images" : [
        {
            "bufferView" : 4,
            "mimeType" : "image/png",
            "name" : "legs_baseColor"
        },
        {
            "bufferView" : 9,
            "mimeType" : "image/png",
            "name" : "cushion_baseColor"
        },
        {
            "bufferView" : 14,
            "mimeType" : "image/png",
            "name" : "supports_baseColor"
        },
        {
            "bufferView" : 19,
            "mimeType" : "image/png",
            "name" : "back_baseColor"
        }
    ],
    "accessors" : [
        {
            "bufferView" : 0,
            "componentType" : 5126,
            "count" : 620,
            "max" : [
                8.065312385559082,
                -1.367556095123291,
                5.274792671203613
            ],
            "min" : [
                6.730907917022705,
                -4.221028804779053,
                3.6315460205078125
            ],
            "type" : "VEC3"
        },
        {
            "bufferView" : 1,
            "componentType" : 5126,
            "count" : 620,
            "type" : "VEC3"
        },
        {
            "bufferView" : 2,
            "componentType" : 5126,
            "count" : 620,
            "type" : "VEC2"
        },
        {
            "bufferView" : 3,
            "componentType" : 5123,
            "count" : 1242,
            "type" : "SCALAR"
        },
        {
            "bufferView" : 5,
            "componentType" : 5126,
            "count" : 24,
            "max" : [
                8.001708984375,
                -2.79237699508667,
                4.902508735656738
            ],
            "min" : [
                6.794511318206787,
                -2.853529691696167,
                3.6315460205078125
            ],
            "type" : "VEC3"
        },
        {
            "bufferView" : 6,
            "componentType" : 5126,
            "count" : 24,
            "type" : "VEC3"
        },
        {
            "bufferView" : 7,
            "componentType" : 5126,
            "count" : 24,
            "type" : "VEC2"
        },
        {
            "bufferView" : 8,
            "componentType" : 5123,
            "count" : 36,
            "type" : "SCALAR"
        },
        {
            "bufferView" : 10,
            "componentType" : 5126,
            "count" : 212,
            "max" : [
                8.054646492004395,
                -3.3877339363098145,
                4.843655109405518
            ],
            "min" : [
                6.741573810577393,
                -3.4971070289611816,
                3.7607781887054443
            ],
            "type" : "VEC3"
        },
        {
            "bufferView" : 11,
            "componentType" : 5126,
            "count" : 212,
            "type" : "VEC3"
        },
        {
            "bufferView" : 12,
            "componentType" : 5126,
            "count" : 212,
            "type" : "VEC2"
        },
        {
            "bufferView" : 13,
            "componentType" : 5123,
            "count" : 618,
            "type" : "SCALAR"
        },
        {
            "bufferView" : 15,
            "componentType" : 5126,
            "count" : 396,
            "max" : [
                8.039759635925293,
                -1.095703125,
                5.297808647155762
            ],
            "min" : [
                6.756460666656494,
                -2.8126697540283203,
                4.8900861740112305
            ],
            "type" : "VEC3"
        },
        {
            "bufferView" : 16,
            "componentType" : 5126,
            "count" : 396,
            "type" : "VEC3"
        },
        {
            "bufferView" : 17,
            "componentType" : 5126,
            "count" : 396,
            "type" : "VEC2"
        },
        {
            "bufferView" : 18,
            "componentType" : 5123,
            "count" : 612,
            "type" : "SCALAR"
        }
    ],
    "bufferViews" : [
        {
            "buffer" : 0,
            "byteLength" : 7440,
            "byteOffset" : 0
        },
        {
            "buffer" : 0,
            "byteLength" : 7440,
            "byteOffset" : 7440
        },
        {
            "buffer" : 0,
            "byteLength" : 4960,
            "byteOffset" : 14880
        },
        {
            "buffer" : 0,
            "byteLength" : 2484,
            "byteOffset" : 19840
        },
        {
            "buffer" : 0,
            "byteLength" : 147944,
            "byteOffset" : 22324
        },
        {
            "buffer" : 0,
            "byteLength" : 288,
            "byteOffset" : 170268
        },
        {
            "buffer" : 0,
            "byteLength" : 288,
            "byteOffset" : 170556
        },
        {
            "buffer" : 0,
            "byteLength" : 192,
            "byteOffset" : 170844
        },
        {
            "buffer" : 0,
            "byteLength" : 72,
            "byteOffset" : 171036
        },
        {
            "buffer" : 0,
            "byteLength" : 1076453,
            "byteOffset" : 171108
        },
        {
            "buffer" : 0,
            "byteLength" : 2544,
            "byteOffset" : 1247564
        },
        {
            "buffer" : 0,
            "byteLength" : 2544,
            "byteOffset" : 1250108
        },
        {
            "buffer" : 0,
            "byteLength" : 1696,
            "byteOffset" : 1252652
        },
        {
            "buffer" : 0,
            "byteLength" : 1236,
            "byteOffset" : 1254348
        },
        {
            "buffer" : 0,
            "byteLength" : 13076,
            "byteOffset" : 1255584
        },
        {
            "buffer" : 0,
            "byteLength" : 4752,
            "byteOffset" : 1268660
        },
        {
            "buffer" : 0,
            "byteLength" : 4752,
            "byteOffset" : 1273412
        },
        {
            "buffer" : 0,
            "byteLength" : 3168,
            "byteOffset" : 1278164
        },
        {
            "buffer" : 0,
            "byteLength" : 1224,
            "byteOffset" : 1281332
        },
        {
            "buffer" : 0,
            "byteLength" : 164094,
            "byteOffset" : 1282556
        }
    ],
    "samplers" : [
        {
            "magFilter" : 9729,
            "minFilter" : 9987
        }
    ],
    "buffers" : [
        {
            "byteLength" : 1446652,
            "uri" : "data:application/octet-stream;base64,"
        }
    ]
}
