{
    "asset" : {
        "generator" : "Khronos glTF Blender I/O v1.7.33",
        "version" : "2.0"
    },
    "scene" : 0,
    "scenes" : [
        {
            "name" : "Scene",
            "nodes" : [
                0
            ]
        }
    ],
    "nodes" : [
        {
            "mesh" : 0,
            "name" : "stove"
        }
    ],
    "materials" : [
        {
            "doubleSided" : true,
            "name" : "oven",
            "normalTexture" : {
                "index" : 0
            },
            "pbrMetallicRoughness" : {
                "baseColorTexture" : {
                    "index" : 1
                },
                "metallicFactor" : 0
            }
        },
        {
            "doubleSided" : true,
            "name" : "burner",
            "normalTexture" : {
                "index" : 2
            },
            "pbrMetallicRoughness" : {
                "baseColorTexture" : {
                    "index" : 3
                },
                "metallicFactor" : 0
            }
        },
        {
            "doubleSided" : true,
            "name" : "handle",
            "normalTexture" : {
                "index" : 4
            },
            "pbrMetallicRoughness" : {
                "baseColorTexture" : {
                    "index" : 5
                },
                "metallicRoughnessTexture" : {
                    "index" : 6
                },
                "roughnessFactor" : 0.5
            }
        },
        {
            "doubleSided" : true,
            "name" : "dial",
            "pbrMetallicRoughness" : {
                "baseColorTexture" : {
                    "index" : 7
                },
                "metallicRoughnessTexture" : {
                    "index" : 8
                },
                "roughnessFactor" : 0.5
            }
        },
        {
            "doubleSided" : true,
            "name" : "stovetop",
            "normalTexture" : {
                "index" : 9
            },
            "pbrMetallicRoughness" : {
                "baseColorTexture" : {
                    "index" : 10
                },
                "metallicFactor" : 0,
                "roughnessFactor" : 0.5
            }
        },
        {
            "doubleSided" : true,
            "name" : "burner2",
            "normalTexture" : {
                "index" : 11
            },
            "pbrMetallicRoughness" : {
                "baseColorTexture" : {
                    "index" : 12
                },
                "metallicFactor" : 0,
                "roughnessFactor" : 0.5
            }
        },
        {
            "doubleSided" : true,
            "name" : "pilot",
            "pbrMetallicRoughness" : {
                "baseColorTexture" : {
                    "index" : 13
                },
                "metallicFactor" : 0,
                "roughnessFactor" : 0.5
            }
        },
        {
            "doubleSided" : true,
            "name" : "pilotarea",
            "pbrMetallicRoughness" : {
                "baseColorTexture" : {
                    "index" : 14
                },
                "metallicRoughnessTexture" : {
                    "index" : 15
                },
                "roughnessFactor" : 0.5
            }
        },
        {
            "doubleSided" : true,
            "name" : "temp",
            "normalTexture" : {
                "index" : 16
            },
            "pbrMetallicRoughness" : {
                "baseColorTexture" : {
                    "index" : 17
                },
                "metallicFactor" : 0,
                "roughnessFactor" : 0.5
            }
        }
    ],
    "meshes" : [
        {
            "name" : "Cylinder.019",
            "primitives" : [
                {
                    "attributes" : {
                        "POSITION" : 0,
                        "NORMAL" : 1,
                        "TEXCOORD_0" : 2
                    },
                    "indices" : 3,
                    "material" : 0
                },
                {
                    "attributes" : {
                        "POSITION" : 4,
                        "NORMAL" : 5,
                        "TEXCOORD_0" : 6
                    },
                    "indices" : 7,
                    "material" : 1
                },
                {
                    "attributes" : {
                        "POSITION" : 8,
                        "NORMAL" : 9,
                        "TEXCOORD_0" : 10
                    },
                    "indices" : 11,
                    "material" : 2
                },
                {
                    "attributes" : {
                        "POSITION" : 12,
                        "NORMAL" : 13,
                        "TEXCOORD_0" : 14
                    },
                    "indices" : 15,
                    "material" : 3
                },
                {
                    "attributes" : {
                        "POSITION" : 16,
                        "NORMAL" : 17,
                        "TEXCOORD_0" : 18
                    },
                    "indices" : 19,
                    "material" : 4
                },
                {
                    "attributes" : {
                        "POSITION" : 20,
                        "NORMAL" : 21,
                        "TEXCOORD_0" : 22
                    },
                    "indices" : 23,
                    "material" : 5
                },
                {
                    "attributes" : {
                        "POSITION" : 24,
                        "NORMAL" : 25,
                        "TEXCOORD_0" : 26
                    },
                    "indices" : 27,
                    "material" : 6
                },
                {
                    "attributes" : {
                        "POSITION" : 28,
                        "NORMAL" : 29,
                        "TEXCOORD_0" : 30
                    },
                    "indices" : 31,
                    "material" : 7
                },
                {
                    "attributes" : {
                        "POSITION" : 32,
                        "NORMAL" : 33,
                        "TEXCOORD_0" : 34
                    },
                    "indices" : 35,
                    "material" : 8
                }
            ]
        }
    ],
    "textures" : [
        {
            "sampler" : 0,
            "source" : 0
        },
        {
            "sampler" : 0,
            "source" : 1
        },
        {
            "sampler" : 0,
            "source" : 2
        },
        {
            "sampler" : 0,
            "source" : 3
        },
        {
            "sampler" : 0,
            "source" : 4
        },
        {
            "sampler" : 0,
            "source" : 5
        },
        {
            "sampler" : 0,
            "source" : 6
        },
        {
            "sampler" : 0,
            "source" : 7
        },
        {
            "sampler" : 0,
            "source" : 8
        },
        {
            "sampler" : 0,
            "source" : 9
        },
        {
            "sampler" : 0,
            "source" : 10
        },
        {
            "sampler" : 0,
            "source" : 11
        },
        {
            "sampler" : 0,
            "source" : 12
        },
        {
            "sampler" : 0,
            "source" : 13
        },
        {
            "sampler" : 0,
            "source" : 14
        },
        {
            "sampler" : 0,
            "source" : 15
        },
        {
            "sampler" : 0,
            "source" : 16
        },
        {
            "sampler" : 0,
            "source" : 17
        }
    ],
    "images" : [
        {
            "bufferView" : 4,
            "mimeType" : "image/png",
            "name" : "oven_normal"
        },
        {
            "bufferView" : 5,
            "mimeType" : "image/png",
            "name" : "oven_baseColor"
        },
        {
            "bufferView" : 10,
            "mimeType" : "image/png",
            "name" : "burner_normal"
        },
        {
            "bufferView" : 11,
            "mimeType" : "image/png",
            "name" : "burner_baseColor"
        },
        {
            "bufferView" : 16,
            "mimeType" : "image/png",
            "name" : "handle_normal"
        },
        {
            "bufferView" : 17,
            "mimeType" : "image/png",
            "name" : "handle_baseColor"
        },
        {
            "bufferView" : 18,
            "mimeType" : "image/png",
            "name" : "handle_metallic"
        },
        {
            "bufferView" : 23,
            "mimeType" : "image/png",
            "name" : "dial_baseColor"
        },
        {
            "bufferView" : 24,
            "mimeType" : "image/png",
            "name" : "dial_metallic"
        },
        {
            "bufferView" : 29,
            "mimeType" : "image/png",
            "name" : "stovetop_normal"
        },
        {
            "bufferView" : 30,
            "mimeType" : "image/png",
            "name" : "stovetop_baseColor"
        },
        {
            "bufferView" : 35,
            "mimeType" : "image/png",
            "name" : "burner2_normal"
        },
        {
            "bufferView" : 36,
            "mimeType" : "image/png",
            "name" : "burner2_baseColor"
        },
        {
            "bufferView" : 41,
            "mimeType" : "image/png",
            "name" : "pilot_baseColor"
        },
        {
            "bufferView" : 46,
            "mimeType" : "image/png",
            "name" : "pilotarea_baseColor"
        },
        {
            "bufferView" : 47,
            "mimeType" : "image/png",
            "name" : "pilotarea_metallic"
        },
        {
            "bufferView" : 52,
            "mimeType" : "image/png",
            "name" : "temp_normal"
        },
        {
            "bufferView" : 53,
            "mimeType" : "image/png",
            "name" : "temp_baseColor"
        }
    ],
    "accessors" : [
        {
            "bufferView" : 0,
            "componentType" : 5126,
            "count" : 332,
            "max" : [
                1.3484582901000977,
                3.1103551387786865,
                1.1887776851654053
            ],
            "min" : [
                -1.1737751960754395,
                -2.384185791015625e-07,
                -1.188773512840271
            ],
            "type" : "VEC3"
        },
        {
            "bufferView" : 1,
            "componentType" : 5126,
            "count" : 332,
            "type" : "VEC3"
        },
        {
            "bufferView" : 2,
            "componentType" : 5126,
            "count" : 332,
            "type" : "VEC2"
        },
        {
            "bufferView" : 3,
            "componentType" : 5123,
            "count" : 516,
            "type" : "SCALAR"
        },
        {
            "bufferView" : 6,
            "componentType" : 5126,
            "count" : 3648,
            "max" : [
                0.8417572975158691,
                2.6612772941589355,
                0.8182997703552246
            ],
            "min" : [
                -0.7414155006408691,
                2.625345230102539,
                -0.8159370422363281
            ],
            "type" : "VEC3"
        },
        {
            "bufferView" : 7,
            "componentType" : 5126,
            "count" : 3648,
            "type" : "VEC3"
        },
        {
            "bufferView" : 8,
            "componentType" : 5126,
            "count" : 3648,
            "type" : "VEC2"
        },
        {
            "bufferView" : 9,
            "componentType" : 5123,
            "count" : 11520,
            "type" : "SCALAR"
        },
        {
            "bufferView" : 12,
            "componentType" : 5126,
            "count" : 38,
            "max" : [
                1.3287718296051025,
                1.9661548137664795,
                0.595048189163208
            ],
            "min" : [
                1.2237024307250977,
                1.8610851764678955,
                -0.5950477123260498
            ],
            "type" : "VEC3"
        },
        {
            "bufferView" : 13,
            "componentType" : 5126,
            "count" : 38,
            "type" : "VEC3"
        },
        {
            "bufferView" : 14,
            "componentType" : 5126,
            "count" : 38,
            "type" : "VEC2"
        },
        {
            "bufferView" : 15,
            "componentType" : 5123,
            "count" : 96,
            "type" : "SCALAR"
        },
        {
            "bufferView" : 19,
            "componentType" : 5126,
            "count" : 1080,
            "max" : [
                1.3838295936584473,
                2.5542638301849365,
                0.8985984325408936
            ],
            "min" : [
                1.234513282775879,
                2.2832884788513184,
                -0.898597240447998
            ],
            "type" : "VEC3"
        },
        {
            "bufferView" : 20,
            "componentType" : 5126,
            "count" : 1080,
            "type" : "VEC3"
        },
        {
            "bufferView" : 21,
            "componentType" : 5126,
            "count" : 1080,
            "type" : "VEC2"
        },
        {
            "bufferView" : 22,
            "componentType" : 5123,
            "count" : 2940,
            "type" : "SCALAR"
        },
        {
            "bufferView" : 25,
            "componentType" : 5126,
            "count" : 304,
            "max" : [
                1.0931038856506348,
                2.6575639247894287,
                1.107104778289795
            ],
            "min" : [
                -1.054126262664795,
                2.6575639247894287,
                -1.1071048974990845
            ],
            "type" : "VEC3"
        },
        {
            "bufferView" : 26,
            "componentType" : 5126,
            "count" : 304,
            "type" : "VEC3"
        },
        {
            "bufferView" : 27,
            "componentType" : 5126,
            "count" : 304,
            "type" : "VEC2"
        },
        {
            "bufferView" : 28,
            "componentType" : 5123,
            "count" : 426,
            "type" : "SCALAR"
        },
        {
            "bufferView" : 31,
            "componentType" : 5126,
            "count" : 1028,
            "max" : [
                0.8524460792541504,
                2.6479852199554443,
                0.7600126266479492
            ],
            "min" : [
                -0.8384556770324707,
                2.584477186203003,
                -0.8980631828308105
            ],
            "type" : "VEC3"
        },
        {
            "bufferView" : 32,
            "componentType" : 5126,
            "count" : 1028,
            "type" : "VEC3"
        },
        {
            "bufferView" : 33,
            "componentType" : 5126,
            "count" : 1028,
            "type" : "VEC2"
        },
        {
            "bufferView" : 34,
            "componentType" : 5123,
            "count" : 2640,
            "type" : "SCALAR"
        },
        {
            "bufferView" : 37,
            "componentType" : 5126,
            "count" : 1216,
            "max" : [
                0.5886096954345703,
                2.5695748329162598,
                0.565148115158081
            ],
            "min" : [
                -0.5003728866577148,
                2.4096837043762207,
                -0.5651483535766602
            ],
            "type" : "VEC3"
        },
        {
            "bufferView" : 38,
            "componentType" : 5126,
            "count" : 1216,
            "type" : "VEC3"
        },
        {
            "bufferView" : 39,
            "componentType" : 5126,
            "count" : 1216,
            "type" : "VEC2"
        },
        {
            "bufferView" : 40,
            "componentType" : 5123,
            "count" : 3792,
            "type" : "SCALAR"
        },
        {
            "bufferView" : 42,
            "componentType" : 5126,
            "count" : 671,
            "max" : [
                0.9222607612609863,
                2.6575639247894287,
                0.8988025188446045
            ],
            "min" : [
                -0.7906932830810547,
                2.494919776916504,
                -0.8988022804260254
            ],
            "type" : "VEC3"
        },
        {
            "bufferView" : 43,
            "componentType" : 5126,
            "count" : 671,
            "type" : "VEC3"
        },
        {
            "bufferView" : 44,
            "componentType" : 5126,
            "count" : 671,
            "type" : "VEC2"
        },
        {
            "bufferView" : 45,
            "componentType" : 5123,
            "count" : 1908,
            "type" : "SCALAR"
        },
        {
            "bufferView" : 48,
            "componentType" : 5126,
            "count" : 12,
            "max" : [
                -1.0304465293884277,
                3.0775742530822754,
                1.1448564529418945
            ],
            "min" : [
                -1.0499930381774902,
                2.794529914855957,
                -1.1448522806167603
            ],
            "type" : "VEC3"
        },
        {
            "bufferView" : 49,
            "componentType" : 5126,
            "count" : 12,
            "type" : "VEC3"
        },
        {
            "bufferView" : 50,
            "componentType" : 5126,
            "count" : 12,
            "type" : "VEC2"
        },
        {
            "bufferView" : 51,
            "componentType" : 5123,
            "count" : 18,
            "type" : "SCALAR"
        }
    ],
    "bufferViews" : [
        {
            "buffer" : 0,
            "byteLength" : 3984,
            "byteOffset" : 0
        },
        {
            "buffer" : 0,
            "byteLength" : 3984,
            "byteOffset" : 3984
        },
        {
            "buffer" : 0,
            "byteLength" : 2656,
            "byteOffset" : 7968
        },
        {
            "buffer" : 0,
            "byteLength" : 1032,
            "byteOffset" : 10624
        },
        {
            "buffer" : 0,
            "byteLength" : 175723,
            "byteOffset" : 11656
        },
        {
            "buffer" : 0,
            "byteLength" : 532997,
            "byteOffset" : 187380
        },
        {
            "buffer" : 0,
            "byteLength" : 43776,
            "byteOffset" : 720380
        },
        {
            "buffer" : 0,
            "byteLength" : 43776,
            "byteOffset" : 764156
        },
        {
            "buffer" : 0,
            "byteLength" : 29184,
            "byteOffset" : 807932
        },
        {
            "buffer" : 0,
            "byteLength" : 23040,
            "byteOffset" : 837116
        },
        {
            "buffer" : 0,
            "byteLength" : 91277,
            "byteOffset" : 860156
        },
        {
            "buffer" : 0,
            "byteLength" : 179639,
            "byteOffset" : 951436
        },
        {
            "buffer" : 0,
            "byteLength" : 456,
            "byteOffset" : 1131076
        },
        {
            "buffer" : 0,
            "byteLength" : 456,
            "byteOffset" : 1131532
        },
        {
            "buffer" : 0,
            "byteLength" : 304,
            "byteOffset" : 1131988
        },
        {
            "buffer" : 0,
            "byteLength" : 192,
            "byteOffset" : 1132292
        },
        {
            "buffer" : 0,
            "byteLength" : 10371,
            "byteOffset" : 1132484
        },
        {
            "buffer" : 0,
            "byteLength" : 27685,
            "byteOffset" : 1142856
        },
        {
            "buffer" : 0,
            "byteLength" : 40638,
            "byteOffset" : 1170544
        },
        {
            "buffer" : 0,
            "byteLength" : 12960,
            "byteOffset" : 1211184
        },
        {
            "buffer" : 0,
            "byteLength" : 12960,
            "byteOffset" : 1224144
        },
        {
            "buffer" : 0,
            "byteLength" : 8640,
            "byteOffset" : 1237104
        },
        {
            "buffer" : 0,
            "byteLength" : 5880,
            "byteOffset" : 1245744
        },
        {
            "buffer" : 0,
            "byteLength" : 46851,
            "byteOffset" : 1251624
        },
        {
            "buffer" : 0,
            "byteLength" : 22148,
            "byteOffset" : 1298476
        },
        {
            "buffer" : 0,
            "byteLength" : 3648,
            "byteOffset" : 1320624
        },
        {
            "buffer" : 0,
            "byteLength" : 3648,
            "byteOffset" : 1324272
        },
        {
            "buffer" : 0,
            "byteLength" : 2432,
            "byteOffset" : 1327920
        },
        {
            "buffer" : 0,
            "byteLength" : 852,
            "byteOffset" : 1330352
        },
        {
            "buffer" : 0,
            "byteLength" : 24812,
            "byteOffset" : 1331204
        },
        {
            "buffer" : 0,
            "byteLength" : 76591,
            "byteOffset" : 1356016
        },
        {
            "buffer" : 0,
            "byteLength" : 12336,
            "byteOffset" : 1432608
        },
        {
            "buffer" : 0,
            "byteLength" : 12336,
            "byteOffset" : 1444944
        },
        {
            "buffer" : 0,
            "byteLength" : 8224,
            "byteOffset" : 1457280
        },
        {
            "buffer" : 0,
            "byteLength" : 5280,
            "byteOffset" : 1465504
        },
        {
            "buffer" : 0,
            "byteLength" : 34657,
            "byteOffset" : 1470784
        },
        {
            "buffer" : 0,
            "byteLength" : 94942,
            "byteOffset" : 1505444
        },
        {
            "buffer" : 0,
            "byteLength" : 14592,
            "byteOffset" : 1600388
        },
        {
            "buffer" : 0,
            "byteLength" : 14592,
            "byteOffset" : 1614980
        },
        {
            "buffer" : 0,
            "byteLength" : 9728,
            "byteOffset" : 1629572
        },
        {
            "buffer" : 0,
            "byteLength" : 7584,
            "byteOffset" : 1639300
        },
        {
            "buffer" : 0,
            "byteLength" : 21604,
            "byteOffset" : 1646884
        },
        {
            "buffer" : 0,
            "byteLength" : 8052,
            "byteOffset" : 1668488
        },
        {
            "buffer" : 0,
            "byteLength" : 8052,
            "byteOffset" : 1676540
        },
        {
            "buffer" : 0,
            "byteLength" : 5368,
            "byteOffset" : 1684592
        },
        {
            "buffer" : 0,
            "byteLength" : 3816,
            "byteOffset" : 1689960
        },
        {
            "buffer" : 0,
            "byteLength" : 100833,
            "byteOffset" : 1693776
        },
        {
            "buffer" : 0,
            "byteLength" : 58656,
            "byteOffset" : 1794612
        },
        {
            "buffer" : 0,
            "byteLength" : 144,
            "byteOffset" : 1853268
        },
        {
            "buffer" : 0,
            "byteLength" : 144,
            "byteOffset" : 1853412
        },
        {
            "buffer" : 0,
            "byteLength" : 96,
            "byteOffset" : 1853556
        },
        {
            "buffer" : 0,
            "byteLength" : 36,
            "byteOffset" : 1853652
        },
        {
            "buffer" : 0,
            "byteLength" : 19309,
            "byteOffset" : 1853688
        },
        {
            "buffer" : 0,
            "byteLength" : 31993,
            "byteOffset" : 1873000
        }
    ],
    "samplers" : [
        {
            "magFilter" : 9729,
            "minFilter" : 9987
        }
    ],
    "buffers" : [
        {
            "byteLength" : 1904996,
            "uri" : "data:application/octet-stream;base64,"
        }
    ]
}
