{
    "asset" : {
        "generator" : "Khronos glTF Blender I/O v1.7.33",
        "version" : "2.0"
    },
    "scene" : 0,
    "scenes" : [
        {
            "name" : "Scene",
            "nodes" : [
                0
            ]
        }
    ],
    "nodes" : [
        {
            "mesh" : 0,
            "name" : "Circle",
            "translation" : [
                0.6151930093765259,
                4.483058452606201,
                -1.6450695991516113
            ]
        }
    ],
    "materials" : [
        {
            "doubleSided" : true,
            "name" : "table_legs",
            "pbrMetallicRoughness" : {
                "baseColorTexture" : {
                    "index" : 0
                },
                "metallicFactor" : 0,
                "roughnessFactor" : 0.5
            }
        },
        {
            "doubleSided" : true,
            "name" : "table_top",
            "pbrMetallicRoughness" : {
                "baseColorTexture" : {
                    "index" : 1
                },
                "metallicFactor" : 0,
                "roughnessFactor" : 0.5
            }
        },
        {
            "doubleSided" : true,
            "name" : "table_bottom",
            "pbrMetallicRoughness" : {
                "baseColorTexture" : {
                    "index" : 2
                },
                "metallicFactor" : 0,
                "roughnessFactor" : 0.5
            }
        }
    ],
    "meshes" : [
        {
            "name" : "Circle",
            "primitives" : [
                {
                    "attributes" : {
                        "POSITION" : 0,
                        "NORMAL" : 1,
                        "TEXCOORD_0" : 2
                    },
                    "indices" : 3,
                    "material" : 0
                },
                {
                    "attributes" : {
                        "POSITION" : 4,
                        "NORMAL" : 5,
                        "TEXCOORD_0" : 6
                    },
                    "indices" : 7,
                    "material" : 1
                },
                {
                    "attributes" : {
                        "POSITION" : 8,
                        "NORMAL" : 9,
                        "TEXCOORD_0" : 10
                    },
                    "indices" : 11,
                    "material" : 2
                }
            ]
        }
    ],
    "textures" : [
        {
            "sampler" : 0,
            "source" : 0
        },
        {
            "sampler" : 0,
            "source" : 1
        },
        {
            "sampler" : 0,
            "source" : 2
        }
    ],
    "images" : [
        {
            "bufferView" : 4,
            "mimeType" : "image/png",
            "name" : "table_legs_baseColor"
        },
        {
            "bufferView" : 9,
            "mimeType" : "image/png",
            "name" : "table_top_baseColor"
        },
        {
            "bufferView" : 14,
            "mimeType" : "image/png",
            "name" : "table_bottom_baseColor"
        }
    ],
    "accessors" : [
        {
            "bufferView" : 0,
            "componentType" : 5126,
            "count" : 600,
            "max" : [
                1.72067391872406,
                -2.1139698028564453,
                -3.5345778465270996
            ],
            "min" : [
                -1.7006639242172241,
                -4.202298164367676,
                -5.749755382537842
            ],
            "type" : "VEC3"
        },
        {
            "bufferView" : 1,
            "componentType" : 5126,
            "count" : 600,
            "type" : "VEC3"
        },
        {
            "bufferView" : 2,
            "componentType" : 5126,
            "count" : 600,
            "type" : "VEC2"
        },
        {
            "bufferView" : 3,
            "componentType" : 5123,
            "count" : 912,
            "type" : "SCALAR"
        },
        {
            "bufferView" : 5,
            "componentType" : 5126,
            "count" : 274,
            "max" : [
                2.300840139389038,
                -1.810695767402649,
                -2.836782932281494
            ],
            "min" : [
                -2.280830144882202,
                -2.0271172523498535,
                -6.447550296783447
            ],
            "type" : "VEC3"
        },
        {
            "bufferView" : 6,
            "componentType" : 5126,
            "count" : 274,
            "type" : "VEC3"
        },
        {
            "bufferView" : 7,
            "componentType" : 5126,
            "count" : 274,
            "type" : "VEC2"
        },
        {
            "bufferView" : 8,
            "componentType" : 5123,
            "count" : 768,
            "type" : "SCALAR"
        },
        {
            "bufferView" : 10,
            "componentType" : 5126,
            "count" : 495,
            "max" : [
                2.132516622543335,
                -1.935806155204773,
                -2.9694361686706543
            ],
            "min" : [
                -2.1125071048736572,
                -2.319087505340576,
                -6.314896583557129
            ],
            "type" : "VEC3"
        },
        {
            "bufferView" : 11,
            "componentType" : 5126,
            "count" : 495,
            "type" : "VEC3"
        },
        {
            "bufferView" : 12,
            "componentType" : 5126,
            "count" : 495,
            "type" : "VEC2"
        },
        {
            "bufferView" : 13,
            "componentType" : 5123,
            "count" : 1344,
            "type" : "SCALAR"
        }
    ],
    "bufferViews" : [
        {
            "buffer" : 0,
            "byteLength" : 7200,
            "byteOffset" : 0
        },
        {
            "buffer" : 0,
            "byteLength" : 7200,
            "byteOffset" : 7200
        },
        {
            "buffer" : 0,
            "byteLength" : 4800,
            "byteOffset" : 14400
        },
        {
            "buffer" : 0,
            "byteLength" : 1824,
            "byteOffset" : 19200
        },
        {
            "buffer" : 0,
            "byteLength" : 872492,
            "byteOffset" : 21024
        },
        {
            "buffer" : 0,
            "byteLength" : 3288,
            "byteOffset" : 893516
        },
        {
            "buffer" : 0,
            "byteLength" : 3288,
            "byteOffset" : 896804
        },
        {
            "buffer" : 0,
            "byteLength" : 2192,
            "byteOffset" : 900092
        },
        {
            "buffer" : 0,
            "byteLength" : 1536,
            "byteOffset" : 902284
        },
        {
            "buffer" : 0,
            "byteLength" : 472970,
            "byteOffset" : 903820
        },
        {
            "buffer" : 0,
            "byteLength" : 5940,
            "byteOffset" : 1376792
        },
        {
            "buffer" : 0,
            "byteLength" : 5940,
            "byteOffset" : 1382732
        },
        {
            "buffer" : 0,
            "byteLength" : 3960,
            "byteOffset" : 1388672
        },
        {
            "buffer" : 0,
            "byteLength" : 2688,
            "byteOffset" : 1392632
        },
        {
            "buffer" : 0,
            "byteLength" : 386980,
            "byteOffset" : 1395320
        }
    ],
    "samplers" : [
        {
            "magFilter" : 9729,
            "minFilter" : 9987
        }
    ],
    "buffers" : [
        {
            "byteLength" : 1782300,
            "uri" : "data:application/octet-stream;base64,"
        }
    ]
}
