{
    "asset" : {
        "generator" : "Khronos glTF Blender I/O v1.7.33",
        "version" : "2.0"
    },
    "scene" : 0,
    "scenes" : [
        {
            "name" : "Scene",
            "nodes" : [
                0
            ]
        }
    ],
    "nodes" : [
        {
            "mesh" : 0,
            "name" : "ashtray",
            "translation" : [
                0.6151930093765259,
                4.483058452606201,
                -1.6450695991516113
            ]
        }
    ],
    "materials" : [
        {
            "doubleSided" : true,
            "name" : "cigbutt",
            "pbrMetallicRoughness" : {
                "baseColorTexture" : {
                    "index" : 0
                },
                "metallicFactor" : 0,
                "roughnessFactor" : 0.5
            }
        },
        {
            "doubleSided" : true,
            "name" : "cig",
            "pbrMetallicRoughness" : {
                "baseColorTexture" : {
                    "index" : 1
                },
                "metallicFactor" : 0,
                "roughnessFactor" : 0.5
            }
        },
        {
            "doubleSided" : true,
            "name" : "ashtray",
            "pbrMetallicRoughness" : {
                "baseColorTexture" : {
                    "index" : 2
                },
                "metallicFactor" : 0,
                "roughnessFactor" : 0.5
            }
        },
        {
            "doubleSided" : true,
            "name" : "burn",
            "pbrMetallicRoughness" : {
                "baseColorTexture" : {
                    "index" : 3
                },
                "metallicFactor" : 0,
                "roughnessFactor" : 0.5
            }
        }
    ],
    "meshes" : [
        {
            "name" : "Circle.001",
            "primitives" : [
                {
                    "attributes" : {
                        "POSITION" : 0,
                        "NORMAL" : 1,
                        "TEXCOORD_0" : 2
                    },
                    "indices" : 3,
                    "material" : 0
                },
                {
                    "attributes" : {
                        "POSITION" : 4,
                        "NORMAL" : 5,
                        "TEXCOORD_0" : 6
                    },
                    "indices" : 7,
                    "material" : 1
                },
                {
                    "attributes" : {
                        "POSITION" : 8,
                        "NORMAL" : 9,
                        "TEXCOORD_0" : 10
                    },
                    "indices" : 11,
                    "material" : 2
                },
                {
                    "attributes" : {
                        "POSITION" : 12,
                        "NORMAL" : 13,
                        "TEXCOORD_0" : 14
                    },
                    "indices" : 15,
                    "material" : 3
                }
            ]
        }
    ],
    "textures" : [
        {
            "sampler" : 0,
            "source" : 0
        },
        {
            "sampler" : 0,
            "source" : 1
        },
        {
            "sampler" : 0,
            "source" : 2
        },
        {
            "sampler" : 0,
            "source" : 3
        }
    ],
    "images" : [
        {
            "bufferView" : 4,
            "mimeType" : "image/png",
            "name" : "cigbutt_baseColor"
        },
        {
            "bufferView" : 9,
            "mimeType" : "image/png",
            "name" : "cig_baseColor"
        },
        {
            "bufferView" : 14,
            "mimeType" : "image/png",
            "name" : "ashtray_baseColor"
        },
        {
            "bufferView" : 19,
            "mimeType" : "image/png",
            "name" : "burn_baseColor"
        }
    ],
    "accessors" : [
        {
            "bufferView" : 0,
            "componentType" : 5126,
            "count" : 220,
            "max" : [
                -0.5042322874069214,
                -1.7243702411651611,
                -3.781708240509033
            ],
            "min" : [
                -0.757607102394104,
                -1.7903163433074951,
                -4.059398174285889
            ],
            "type" : "VEC3"
        },
        {
            "bufferView" : 1,
            "componentType" : 5126,
            "count" : 220,
            "type" : "VEC3"
        },
        {
            "bufferView" : 2,
            "componentType" : 5126,
            "count" : 220,
            "type" : "VEC2"
        },
        {
            "bufferView" : 3,
            "componentType" : 5123,
            "count" : 510,
            "type" : "SCALAR"
        },
        {
            "bufferView" : 5,
            "componentType" : 5126,
            "count" : 160,
            "max" : [
                -0.5042322874069214,
                -1.7482523918151855,
                -3.822880268096924
            ],
            "min" : [
                -0.757607102394104,
                -1.7902803421020508,
                -4.059398174285889
            ],
            "type" : "VEC3"
        },
        {
            "bufferView" : 6,
            "componentType" : 5126,
            "count" : 160,
            "type" : "VEC3"
        },
        {
            "bufferView" : 7,
            "componentType" : 5126,
            "count" : 160,
            "type" : "VEC2"
        },
        {
            "bufferView" : 8,
            "componentType" : 5123,
            "count" : 360,
            "type" : "SCALAR"
        },
        {
            "bufferView" : 10,
            "componentType" : 5126,
            "count" : 194,
            "max" : [
                -0.45844507217407227,
                -1.741701602935791,
                -3.7897090911865234
            ],
            "min" : [
                -0.7914483547210693,
                -1.8070955276489258,
                -4.122712135314941
            ],
            "type" : "VEC3"
        },
        {
            "bufferView" : 11,
            "componentType" : 5126,
            "count" : 194,
            "type" : "VEC3"
        },
        {
            "bufferView" : 12,
            "componentType" : 5126,
            "count" : 194,
            "type" : "VEC2"
        },
        {
            "bufferView" : 13,
            "componentType" : 5123,
            "count" : 576,
            "type" : "SCALAR"
        },
        {
            "bufferView" : 15,
            "componentType" : 5126,
            "count" : 143,
            "max" : [
                -0.5741144418716431,
                -1.768852710723877,
                -3.8696036338806152
            ],
            "min" : [
                -0.7173526287078857,
                -1.7923588752746582,
                -4.008437633514404
            ],
            "type" : "VEC3"
        },
        {
            "bufferView" : 16,
            "componentType" : 5126,
            "count" : 143,
            "type" : "VEC3"
        },
        {
            "bufferView" : 17,
            "componentType" : 5126,
            "count" : 143,
            "type" : "VEC2"
        },
        {
            "bufferView" : 18,
            "componentType" : 5123,
            "count" : 318,
            "type" : "SCALAR"
        }
    ],
    "bufferViews" : [
        {
            "buffer" : 0,
            "byteLength" : 2640,
            "byteOffset" : 0
        },
        {
            "buffer" : 0,
            "byteLength" : 2640,
            "byteOffset" : 2640
        },
        {
            "buffer" : 0,
            "byteLength" : 1760,
            "byteOffset" : 5280
        },
        {
            "buffer" : 0,
            "byteLength" : 1020,
            "byteOffset" : 7040
        },
        {
            "buffer" : 0,
            "byteLength" : 236413,
            "byteOffset" : 8060
        },
        {
            "buffer" : 0,
            "byteLength" : 1920,
            "byteOffset" : 244476
        },
        {
            "buffer" : 0,
            "byteLength" : 1920,
            "byteOffset" : 246396
        },
        {
            "buffer" : 0,
            "byteLength" : 1280,
            "byteOffset" : 248316
        },
        {
            "buffer" : 0,
            "byteLength" : 720,
            "byteOffset" : 249596
        },
        {
            "buffer" : 0,
            "byteLength" : 366533,
            "byteOffset" : 250316
        },
        {
            "buffer" : 0,
            "byteLength" : 2328,
            "byteOffset" : 616852
        },
        {
            "buffer" : 0,
            "byteLength" : 2328,
            "byteOffset" : 619180
        },
        {
            "buffer" : 0,
            "byteLength" : 1552,
            "byteOffset" : 621508
        },
        {
            "buffer" : 0,
            "byteLength" : 1152,
            "byteOffset" : 623060
        },
        {
            "buffer" : 0,
            "byteLength" : 499879,
            "byteOffset" : 624212
        },
        {
            "buffer" : 0,
            "byteLength" : 1716,
            "byteOffset" : 1124092
        },
        {
            "buffer" : 0,
            "byteLength" : 1716,
            "byteOffset" : 1125808
        },
        {
            "buffer" : 0,
            "byteLength" : 1144,
            "byteOffset" : 1127524
        },
        {
            "buffer" : 0,
            "byteLength" : 636,
            "byteOffset" : 1128668
        },
        {
            "buffer" : 0,
            "byteLength" : 24871,
            "byteOffset" : 1129304
        }
    ],
    "samplers" : [
        {
            "magFilter" : 9729,
            "minFilter" : 9987
        }
    ],
    "buffers" : [
        {
            "byteLength" : 1154176,
            "uri" : "data:application/octet-stream;base64,"
        }
    ]
}
