{
    "asset" : {
        "generator" : "Khronos glTF Blender I/O v1.7.33",
        "version" : "2.0"
    },
    "scene" : 0,
    "scenes" : [
        {
            "name" : "Scene",
            "nodes" : [
                0
            ]
        }
    ],
    "nodes" : [
        {
            "mesh" : 0,
            "name" : "Cube.004",
            "rotation" : [
                0,
                1,
                0,
                -1.6292068494294654e-07
            ],
            "translation" : [
                0.6151928901672363,
                4.483058452606201,
                -1.6450700759887695
            ]
        }
    ],
    "materials" : [
        {
            "doubleSided" : true,
            "name" : "legs",
            "pbrMetallicRoughness" : {
                "baseColorTexture" : {
                    "index" : 0
                },
                "metallicFactor" : 0,
                "roughnessFactor" : 0.5
            }
        },
        {
            "doubleSided" : true,
            "name" : "cushion",
            "pbrMetallicRoughness" : {
                "baseColorTexture" : {
                    "index" : 1
                },
                "metallicFactor" : 0,
                "roughnessFactor" : 0.5
            }
        },
        {
            "doubleSided" : true,
            "name" : "supports",
            "pbrMetallicRoughness" : {
                "baseColorTexture" : {
                    "index" : 2
                },
                "metallicFactor" : 0,
                "roughnessFactor" : 0.5
            }
        },
        {
            "doubleSided" : true,
            "name" : "back",
            "pbrMetallicRoughness" : {
                "baseColorTexture" : {
                    "index" : 3
                },
                "metallicFactor" : 0,
                "roughnessFactor" : 0.5
            }
        }
    ],
    "meshes" : [
        {
            "name" : "Cube.006",
            "primitives" : [
                {
                    "attributes" : {
                        "POSITION" : 0,
                        "NORMAL" : 1,
                        "TEXCOORD_0" : 2
                    },
                    "indices" : 3,
                    "material" : 0
                },
                {
                    "attributes" : {
                        "POSITION" : 4,
                        "NORMAL" : 5,
                        "TEXCOORD_0" : 6
                    },
                    "indices" : 7,
                    "material" : 1
                },
                {
                    "attributes" : {
                        "POSITION" : 8,
                        "NORMAL" : 9,
                        "TEXCOORD_0" : 10
                    },
                    "indices" : 11,
                    "material" : 2
                },
                {
                    "attributes" : {
                        "POSITION" : 12,
                        "NORMAL" : 13,
                        "TEXCOORD_0" : 14
                    },
                    "indices" : 15,
                    "material" : 3
                }
            ]
        }
    ],
    "textures" : [
        {
            "sampler" : 0,
            "source" : 0
        },
        {
            "sampler" : 0,
            "source" : 1
        },
        {
            "sampler" : 0,
            "source" : 2
        },
        {
            "sampler" : 0,
            "source" : 3
        }
    ],
    "images" : [
        {
            "bufferView" : 4,
            "mimeType" : "image/png",
            "name" : "legs_baseColor"
        },
        {
            "bufferView" : 9,
            "mimeType" : "image/png",
            "name" : "cushion_baseColor"
        },
        {
            "bufferView" : 14,
            "mimeType" : "image/png",
            "name" : "supports_baseColor"
        },
        {
            "bufferView" : 19,
            "mimeType" : "image/png",
            "name" : "back_baseColor"
        }
    ],
    "accessors" : [
        {
            "bufferView" : 0,
            "componentType" : 5126,
            "count" : 628,
            "max" : [
                0.16837692260742188,
                -1.367556095123291,
                7.449019908905029
            ],
            "min" : [
                -1.1660277843475342,
                -4.221028804779053,
                5.8057732582092285
            ],
            "type" : "VEC3"
        },
        {
            "bufferView" : 1,
            "componentType" : 5126,
            "count" : 628,
            "type" : "VEC3"
        },
        {
            "bufferView" : 2,
            "componentType" : 5126,
            "count" : 628,
            "type" : "VEC2"
        },
        {
            "bufferView" : 3,
            "componentType" : 5123,
            "count" : 1242,
            "type" : "SCALAR"
        },
        {
            "bufferView" : 5,
            "componentType" : 5126,
            "count" : 24,
            "max" : [
                0.10477328300476074,
                -2.79237699508667,
                7.076735973358154
            ],
            "min" : [
                -1.102424144744873,
                -2.853529691696167,
                5.8057732582092285
            ],
            "type" : "VEC3"
        },
        {
            "bufferView" : 6,
            "componentType" : 5126,
            "count" : 24,
            "type" : "VEC3"
        },
        {
            "bufferView" : 7,
            "componentType" : 5126,
            "count" : 24,
            "type" : "VEC2"
        },
        {
            "bufferView" : 8,
            "componentType" : 5123,
            "count" : 36,
            "type" : "SCALAR"
        },
        {
            "bufferView" : 10,
            "componentType" : 5126,
            "count" : 208,
            "max" : [
                0.15771079063415527,
                -3.3877339363098145,
                7.017882347106934
            ],
            "min" : [
                -1.1553617715835571,
                -3.4971070289611816,
                5.935005187988281
            ],
            "type" : "VEC3"
        },
        {
            "bufferView" : 11,
            "componentType" : 5126,
            "count" : 208,
            "type" : "VEC3"
        },
        {
            "bufferView" : 12,
            "componentType" : 5126,
            "count" : 208,
            "type" : "VEC2"
        },
        {
            "bufferView" : 13,
            "componentType" : 5123,
            "count" : 618,
            "type" : "SCALAR"
        },
        {
            "bufferView" : 15,
            "componentType" : 5126,
            "count" : 402,
            "max" : [
                0.1428236961364746,
                -1.095703125,
                7.472035884857178
            ],
            "min" : [
                -1.1404750347137451,
                -2.8126697540283203,
                7.064312934875488
            ],
            "type" : "VEC3"
        },
        {
            "bufferView" : 16,
            "componentType" : 5126,
            "count" : 402,
            "type" : "VEC3"
        },
        {
            "bufferView" : 17,
            "componentType" : 5126,
            "count" : 402,
            "type" : "VEC2"
        },
        {
            "bufferView" : 18,
            "componentType" : 5123,
            "count" : 612,
            "type" : "SCALAR"
        }
    ],
    "bufferViews" : [
        {
            "buffer" : 0,
            "byteLength" : 7536,
            "byteOffset" : 0
        },
        {
            "buffer" : 0,
            "byteLength" : 7536,
            "byteOffset" : 7536
        },
        {
            "buffer" : 0,
            "byteLength" : 5024,
            "byteOffset" : 15072
        },
        {
            "buffer" : 0,
            "byteLength" : 2484,
            "byteOffset" : 20096
        },
        {
            "buffer" : 0,
            "byteLength" : 147944,
            "byteOffset" : 22580
        },
        {
            "buffer" : 0,
            "byteLength" : 288,
            "byteOffset" : 170524
        },
        {
            "buffer" : 0,
            "byteLength" : 288,
            "byteOffset" : 170812
        },
        {
            "buffer" : 0,
            "byteLength" : 192,
            "byteOffset" : 171100
        },
        {
            "buffer" : 0,
            "byteLength" : 72,
            "byteOffset" : 171292
        },
        {
            "buffer" : 0,
            "byteLength" : 1076453,
            "byteOffset" : 171364
        },
        {
            "buffer" : 0,
            "byteLength" : 2496,
            "byteOffset" : 1247820
        },
        {
            "buffer" : 0,
            "byteLength" : 2496,
            "byteOffset" : 1250316
        },
        {
            "buffer" : 0,
            "byteLength" : 1664,
            "byteOffset" : 1252812
        },
        {
            "buffer" : 0,
            "byteLength" : 1236,
            "byteOffset" : 1254476
        },
        {
            "buffer" : 0,
            "byteLength" : 13076,
            "byteOffset" : 1255712
        },
        {
            "buffer" : 0,
            "byteLength" : 4824,
            "byteOffset" : 1268788
        },
        {
            "buffer" : 0,
            "byteLength" : 4824,
            "byteOffset" : 1273612
        },
        {
            "buffer" : 0,
            "byteLength" : 3216,
            "byteOffset" : 1278436
        },
        {
            "buffer" : 0,
            "byteLength" : 1224,
            "byteOffset" : 1281652
        },
        {
            "buffer" : 0,
            "byteLength" : 164094,
            "byteOffset" : 1282876
        }
    ],
    "samplers" : [
        {
            "magFilter" : 9729,
            "minFilter" : 9987
        }
    ],
    "buffers" : [
        {
            "byteLength" : 1446972,
            "uri" : "data:application/octet-stream;base64,"
        }
    ]
}
